<?xml version="1.0" standalone="no"?>
<!DOCTYPE svg PUBLIC "-//W3C//DTD SVG 20010904//EN"
 "http://www.w3.org/TR/2001/REC-SVG-20010904/DTD/svg10.dtd">
<svg version="1.0" xmlns="http://www.w3.org/2000/svg"
 width="1152.000000pt" height="1152.000000pt" viewBox="0 0 1152.000000 1152.000000"
 preserveAspectRatio="xMidYMid meet">
<metadata>
Created by potrace 1.14, written by Peter Selinger 2001-2017
</metadata>
<g transform="translate(0.000000,1152.000000) scale(0.100000,-0.100000)"
fill="#000000" stroke="none">
<path d="M5567 11513 c-2 -5 -3 -282 -3 -616 1 -335 -1 -612 -4 -616 -3 -4
-45 -18 -95 -31 -278 -72 -518 -229 -713 -465 -45 -56 -43 -53 -88 -125 -112
-180 -179 -376 -199 -585 -13 -126 -2 -331 21 -407 5 -16 10 -38 20 -86 11
-51 69 -199 105 -264 22 -39 39 -75 39 -79 0 -5 5 -9 10 -9 6 0 10 -5 10 -10
0 -6 26 -45 57 -88 78 -105 220 -245 296 -290 15 -9 27 -20 27 -24 0 -4 4 -8
9 -8 5 0 38 -17 72 -38 35 -21 75 -43 89 -49 65 -31 141 -62 169 -68 17 -4 31
-8 31 -10 0 -3 -11 -28 -24 -57 -13 -29 -70 -159 -126 -288 -99 -230 -145
-334 -180 -415 -10 -22 -61 -141 -115 -265 -53 -124 -106 -243 -116 -266 -10
-22 -19 -46 -19 -52 0 -7 -4 -12 -10 -12 -5 0 -9 -3 -8 -7 1 -5 -4 -21 -11
-38 -25 -61 -164 -382 -192 -443 -16 -35 -29 -69 -29 -76 0 -8 -7 -19 -15 -26
-8 -7 -15 -18 -15 -24 0 -6 -34 -90 -76 -186 -78 -178 -95 -221 -96 -230 0 -3
-3 -9 -8 -15 -4 -5 -27 -55 -50 -110 -23 -55 -53 -123 -66 -152 -22 -48 -45
-101 -49 -113 -3 -11 -37 -88 -58 -135 l-23 -50 -585 0 -584 0 -2 -65 c-3 -60
-3 -147 -1 -177 1 -10 112 -13 520 -13 285 0 518 -2 518 -4 0 -3 -145 -328
-226 -504 -13 -29 -24 -54 -24 -56 0 -2 -17 -39 -37 -82 -20 -44 -37 -81 -38
-84 -3 -10 -23 -56 -50 -115 -48 -107 -72 -159 -105 -235 -18 -41 -50 -113
-71 -158 -22 -46 -39 -86 -39 -89 0 -3 -13 -33 -29 -67 -16 -33 -44 -95 -62
-136 -17 -41 -42 -97 -54 -125 -13 -27 -33 -72 -45 -100 -32 -71 -59 -134 -61
-143 -1 -4 -10 -23 -20 -42 -11 -19 -19 -38 -19 -43 0 -8 -7 -25 -71 -165 -16
-34 -29 -65 -29 -68 0 -3 -11 -30 -25 -60 -14 -30 -25 -56 -25 -59 0 -2 -5
-16 -12 -32 -18 -44 -19 -54 -23 -126 -4 -68 0 -84 37 -164 34 -74 140 -171
249 -228 42 -21 43 -2 -16 -180 -20 -60 -38 -117 -40 -125 -2 -8 -8 -28 -15
-45 -6 -16 -12 -32 -12 -35 0 -3 -10 -30 -20 -60 -11 -30 -20 -59 -22 -65 -1
-5 -7 -23 -13 -40 -13 -34 -173 -522 -179 -545 -2 -8 -24 -76 -49 -150 -26
-74 -48 -143 -50 -152 -2 -9 -9 -26 -15 -37 -6 -12 -8 -21 -6 -21 3 0 -3 -20
-14 -45 l-19 -45 39 0 c39 0 40 1 70 66 16 36 30 67 30 69 0 2 17 41 38 87 21
46 54 117 72 158 18 41 62 138 97 214 35 77 63 145 63 153 0 7 5 13 10 13 6 0
10 6 10 14 0 7 19 53 42 102 23 49 42 91 43 94 3 11 24 58 55 125 18 39 50
111 72 160 50 113 72 163 109 243 16 35 29 65 29 68 0 2 13 32 29 66 24 52
128 282 186 413 17 40 55 123 99 218 20 44 36 80 36 82 0 3 21 50 82 185 11
25 38 85 60 135 22 49 46 101 53 115 17 32 110 242 111 249 0 3 19 46 42 94
23 49 42 91 42 94 0 2 11 28 24 56 50 108 96 209 96 212 0 4 32 75 86 190 15
33 28 62 29 65 3 10 24 57 53 120 49 109 69 151 110 245 22 50 53 119 70 155
16 36 40 89 52 118 l23 52 401 -2 401 -3 0 -180 c0 -99 4 -186 8 -193 48 -74
318 -73 359 1 8 14 13 80 14 187 1 91 2 171 3 178 1 9 88 12 399 12 l399 0 83
-188 c46 -103 95 -214 110 -247 71 -156 85 -185 115 -255 18 -41 43 -97 56
-125 12 -27 23 -52 24 -55 1 -3 18 -41 38 -84 20 -43 37 -81 37 -83 0 -2 11
-28 24 -56 68 -146 106 -229 106 -232 0 -3 21 -50 82 -185 11 -25 38 -85 60
-135 22 -49 50 -110 61 -135 11 -25 21 -47 22 -50 0 -3 13 -32 29 -65 29 -62
39 -85 77 -170 21 -49 100 -226 134 -302 10 -21 33 -71 51 -111 19 -40 34 -75
34 -77 0 -2 21 -48 46 -102 25 -54 47 -102 48 -108 1 -5 19 -45 39 -88 20 -43
37 -80 37 -82 0 -2 25 -59 56 -127 30 -68 72 -159 91 -203 20 -44 46 -102 59
-130 12 -27 34 -75 47 -105 13 -30 34 -76 46 -102 11 -27 30 -69 41 -94 11
-25 70 -156 131 -292 61 -136 130 -290 153 -342 42 -93 43 -95 79 -98 21 -2
37 0 37 3 0 4 -23 77 -52 163 -29 87 -53 159 -53 162 -1 3 -32 97 -69 210 -37
113 -69 212 -71 220 -2 8 -9 29 -16 45 -6 17 -13 35 -14 40 -2 6 -19 60 -40
120 -20 61 -38 115 -39 120 -3 12 -132 402 -141 426 -5 13 5 23 42 40 26 13
57 32 67 42 11 9 24 17 28 17 5 0 33 24 63 54 118 119 148 244 94 398 -16 46
-32 92 -36 103 -3 11 -9 22 -12 25 -4 3 -17 32 -30 65 -13 33 -34 83 -46 110
-13 28 -46 104 -75 170 -29 66 -63 145 -77 175 -28 63 -77 175 -104 237 -11
24 -28 62 -38 85 -11 24 -50 111 -86 193 -37 83 -75 168 -85 190 -10 22 -92
207 -183 410 -91 204 -179 402 -197 440 -40 86 -70 155 -70 161 0 2 233 5 518
6 l517 3 1 125 2 126 -567 -1 c-311 0 -577 2 -590 5 -17 4 -30 22 -48 65 -23
55 -161 375 -203 470 -10 22 -39 90 -65 150 -26 61 -60 138 -76 173 -16 34
-29 64 -29 67 0 2 -11 28 -24 57 -13 29 -36 82 -51 118 -15 36 -37 88 -50 115
-12 28 -42 95 -65 150 -24 55 -53 123 -65 150 -43 94 -58 130 -59 136 -1 3
-13 33 -28 65 -14 33 -33 75 -41 94 -9 19 -26 58 -38 85 -12 28 -23 52 -24 55
-3 10 -84 197 -113 260 -9 19 -16 37 -16 40 -1 3 -8 21 -17 40 -9 19 -45 100
-79 180 -34 80 -70 163 -80 185 -10 22 -40 92 -68 155 -28 63 -52 121 -54 128
-2 9 18 20 56 32 88 28 254 114 341 176 308 221 512 556 561 922 9 67 9 297 0
362 -49 360 -242 687 -531 905 -89 67 -125 88 -235 140 -41 20 -83 40 -92 45
-10 6 -26 10 -36 10 -10 0 -22 3 -26 7 -3 4 -12 8 -19 10 -7 2 -44 10 -84 19
l-72 17 0 576 c0 317 0 597 -1 624 l0 47 -244 0 c-135 0 -247 -3 -249 -7z
m373 -1704 c20 -1 131 -28 150 -36 8 -3 17 -7 20 -8 51 -18 159 -72 181 -91 8
-8 19 -14 22 -14 17 0 136 -113 189 -180 65 -81 140 -228 153 -297 2 -13 6
-26 8 -30 19 -31 28 -266 14 -355 -27 -171 -118 -347 -247 -477 -49 -50 -143
-121 -158 -121 -7 0 -12 -4 -12 -9 0 -12 -134 -70 -215 -93 -164 -46 -333 -41
-507 13 -40 13 -75 25 -78 28 -3 3 -23 14 -45 24 -67 31 -140 83 -207 149 -89
86 -114 121 -177 238 -42 78 -76 189 -87 282 -7 60 -6 191 1 228 3 14 8 39 11
55 8 47 24 108 34 130 5 11 16 38 26 60 18 42 97 169 117 190 7 7 24 25 38 41
89 100 227 190 359 234 69 23 80 26 145 36 22 3 41 7 42 8 3 2 177 -2 223 -5z
m-124 -3127 c1 -8 16 -45 42 -105 11 -23 32 -71 47 -107 15 -36 35 -83 45
-105 10 -22 39 -89 65 -150 26 -60 53 -126 62 -145 8 -19 35 -82 60 -140 25
-58 53 -123 63 -145 9 -22 36 -85 60 -140 23 -55 50 -118 60 -140 10 -22 37
-85 60 -140 23 -55 50 -118 60 -140 10 -22 32 -74 50 -115 17 -41 40 -93 50
-115 9 -22 28 -65 40 -95 12 -30 35 -83 50 -117 50 -107 80 -97 -285 -98 -176
0 -327 1 -335 3 -13 3 -15 34 -15 207 -1 224 1 219 -64 246 -20 8 -98 20 -136
21 -71 1 -161 -33 -172 -65 -4 -12 -8 -105 -9 -207 -1 -102 -2 -189 -3 -195
-1 -11 -655 -14 -666 -3 -4 3 -1 17 6 30 7 12 14 25 14 28 1 3 8 21 17 40 8
19 48 112 87 205 40 94 84 193 97 222 13 28 24 54 24 57 0 3 11 29 24 58 13
29 38 87 56 128 17 41 39 91 48 110 9 19 17 40 18 45 1 6 15 39 32 75 16 36
89 205 162 375 131 307 146 342 180 420 10 22 35 80 55 128 33 76 47 96 51 69z"/>
</g>
</svg>
